<svg xmlns="http://www.w3.org/2000/svg" viewBox="0 0 109.9 109.9"><defs><style>.a{fill:#f9fbfc;}</style></defs><title>syllium-diaph</title><path class="a" d="M65.3,37.7,45.2,3A55,55,0,0,0,5.1,37.7Z" transform="translate(-1.8 -1.8)"/><path class="a" d="M47.4,2.6l30,52,20-34.7A54.8,54.8,0,0,0,56.7,1.8" transform="translate(-1.8 -1.8)"/><path class="a" d="M109,73.6a55,55,0,0,0-10-52l-30,52Z" transform="translate(-1.8 -1.8)"/><path class="a" d="M36,58.8l-20,34.7A55,55,0,0,0,66,110.8Z" transform="translate(-1.8 -1.8)"/><path class="a" d="M44.5,39.8H4.4a55,55,0,0,0,10,52Z" transform="translate(-1.8 -1.8)"/><path class="a" d="M48.1,75.7l20,34.7a55,55,0,0,0,40.1-34.7Z" transform="translate(-1.8 -1.8)"/></svg>